PathFileType	4	(X/Y/Z)	Patient4_TMGait_0pt5_02_left_20.trc.trc
DataRate	CameraRate	NumFrames	NumMarkers	Units	OrigDataRate	OrigDataStartFrame	OrigNumFrames
80.459770114943	80.459770114943	4	33	mm	80.459770114943	53	       141
Frame#	Time	Sacral			L.Shoulder			Chest			R.Shoulder			Neck			R.ASIS			L.ASIS			R.Thigh.Superior			R.Thigh.Lateral			R.Thigh.Inferior			R.Patella			L.Thigh.Superior			L.Thigh.Lateral			L.Thigh.Inferior			L.Patella			L.Shank.Superior			L.Shank.Lateral			L.Shank.Inferior			R.Shank.Superior			R.Shank.Lateral			R.Shank.Inferior			R.Heel			R.Midfoot.Superior			R.Midfoot.Lateral			R.Toe			L.Heel			L.Midfoot.Lateral			L.Midfoot.Superior			L.Toe			L.Elbow			L.Wrist			R.Elbow			R.Wrist			
		X1	Y1	Z1	X2	Y2	Z2	X3	Y3	Z3	X4	Y4	Z4	X5	Y5	Z5	X6	Y6	Z6	X7	Y7	Z7	X8	Y8	Z8	X9	Y9	Z9	X10	Y10	Z10	X11	Y11	Z11	X12	Y12	Z12	X13	Y13	Z13	X14	Y14	Z14	X15	Y15	Z15	X16	Y16	Z16	X17	Y17	Z17	X18	Y18	Z18	X19	Y19	Z19	X20	Y20	Z20	X21	Y21	Z21	X22	Y22	Z22	X23	Y23	Z23	X24	Y24	Z24	X25	Y25	Z25	X26	Y26	Z26	X27	Y27	Z27	X28	Y28	Z28	X29	Y29	Z29	X30	Y30	Z30	X31	Y31	Z31	X32	Y32	Z32	X33	Y33	Z33	

53	25.986285714286	569.757503370624	1016.855198664499	442.621797576942	773.943220158082	1435.734192350989	264.534932293232	867.602660223645	1362.349632851314	429.323206483174	780.071045263819	1441.198792900773	600.364520469029	770.500199597203	1496.971450166810	415.785568555801	788.802920191857	945.530396632618	564.045357615087	786.981788930707	960.261786599797	291.379096197811	869.116420170937	773.484703743314	531.263571828334	827.741133921270	653.829796584325	603.264158748353	916.068408514141	614.131089750523	521.774034212552	933.841722694008	499.894155875406	543.100031112659	827.297620240409	747.952755157796	321.396786098313	735.174345341951	638.130789751622	261.166873466157	813.374580932158	556.757704894625	327.466587269764	810.109194248279	486.668402109765	337.373378250931	781.350890023831	416.129165772154	327.029852858455	689.587500742271	304.428547394426	275.763502910868	736.702793289781	192.300968492772	347.419122635697	855.683031000621	426.593486035591	551.375024539372	731.335911446602	388.910668459883	605.453112830564	719.730213190183	278.421702631437	560.989149388109	523.502138492722	226.697166049974	517.446953061381	679.793231227582	154.393597763301	580.141822152072	569.316709969003	173.260001694906	603.972697849982	726.539370324583	40.478882705487	630.575058500862	605.232311843495	37.622699873225	389.589378762675	676.951364492393	34.577510641053	306.818229855020	760.757349578057	95.936122503108	331.404186624186	888.382295241567	43.857048968327	298.638938709996	760.435271650224	1093.174001983132	117.089213952344	922.457592530658	886.300297921334	118.471942901276	751.882914286236	1092.004568132469	709.091235295196	957.464832047282	941.591089130658	678.069586390233	
54	25.998714285714	568.940072857023	1017.652224905020	440.901490556624	776.956169733865	1436.045907684754	264.543912673633	868.729497804682	1361.923744540097	430.032739684747	779.994626347325	1440.817827190847	600.419943066726	772.271669583717	1497.019280659718	415.930213107283	787.420134486620	946.181557236103	564.278851379068	787.368816623020	960.285028296606	291.376344642113	869.915243973385	776.889984861616	530.621473197109	830.959512015911	656.634973209984	602.833629848769	919.651945549384	618.390624591134	521.019787543440	939.747849122186	504.659752672080	542.561385862733	825.264279506439	747.013514538609	321.628857351746	732.227516186270	638.133673372642	260.808479832455	809.221582376859	556.033484260745	327.504420208377	805.231301717215	486.056980800193	337.425572515303	776.320810821696	415.826417113017	326.965016705353	684.247883716971	304.431481581227	275.564156054938	730.830900928695	192.155168138392	347.361727823355	863.450129319686	429.635946960998	551.011480221858	740.102667949865	388.315305873114	604.683968722515	731.900313079929	277.529268741858	560.514949394760	537.026992428527	218.790529531021	516.943961215116	696.006724817138	153.060471636605	579.632086847939	585.025270116135	167.792302755337	603.752289659197	747.267292757462	41.585206809618	630.758434366349	598.902760924722	37.668962512353	389.554797654186	670.674024328928	34.569423907588	306.788957831377	754.506566872483	95.894578226831	331.383735949529	882.133451728925	43.726483417440	298.628193580035	764.042375671427	1094.454580929534	115.322379272860	933.699453747561	893.965450258892	117.865021416745	745.294729129457	1091.415569369136	707.568563149469	939.439075602170	924.599228939663	680.671341679338	
55	26.011142857143	568.149835517062	1018.403698200251	439.296538439963	780.227646144177	1436.231545297545	264.651237184451	869.990585969331	1361.348520115002	430.869963488011	780.059089967918	1440.385473331492	600.540545707226	774.240836836506	1496.968316216432	416.123368316364	786.116701754419	946.795415125074	564.666304173613	787.817109145583	960.264018751176	291.471740257148	870.538422248298	780.082735739194	530.233773711208	833.682243168106	659.228940958307	602.578831036688	922.717814274507	622.290277305212	520.577075094347	944.991218417410	509.310936571481	542.335665497336	823.239537926825	746.078798196871	321.971667145871	729.376907471115	638.089703414262	260.543741340032	805.226857225273	555.315346173056	327.599567660292	800.540936905697	485.411043021665	337.508911104730	771.447159260686	415.489997763325	326.951600648647	679.017768908482	304.446256144645	275.414653701380	725.026150968903	191.990256325434	347.314126264091	871.016513987894	432.423209352661	550.925585643878	749.171731967556	386.766270123344	604.379913170256	744.940459076691	275.787150687215	560.393796405140	551.963876778346	208.955428911849	517.105754007208	713.902018715413	150.960831950330	579.542075500329	602.525542966799	160.747453036672	604.066984851208	770.352168725207	42.405084119117	631.026344740742	592.586950619338	37.738139104988	389.519512032905	664.404983854510	34.571300115183	306.764683734147	748.278652498319	95.846579272410	331.366011252805	875.901983235870	43.552080432221	298.613985606110	767.589911741851	1095.583303867153	113.796864100108	944.435103829071	901.642705558440	117.544362167299	739.232404701678	1090.960498257332	706.392190652515	920.356931385044	908.571563352617	683.259304283126	
56	26.023571428571	567.440553384944	1019.083439181847	437.845488938595	783.698782861890	1436.294182202495	264.864668328684	871.371428284025	1360.629176024835	431.820047629659	780.274987445281	1439.886391148303	600.735581002721	776.381704321968	1496.815542497379	416.380778732943	784.923014211300	947.337150604970	565.165086862149	788.339754933553	960.192499738307	291.633313301475	870.976755894536	782.963132527775	530.089249492356	835.839620672780	661.516512457776	602.500880113024	925.189750217907	625.697062784619	520.455687094975	949.460752966942	513.728244071349	542.403070288626	821.286171431175	745.152425516698	322.398198863645	726.679060188260	637.985832975994	260.381551228171	801.467910907501	554.594651476061	327.748955313911	796.120600009697	484.716956200703	337.628450183891	766.798197999203	415.102696372469	326.996809843857	673.949242600662	304.471229814895	275.320955671749	719.318913846468	191.798747286504	347.282452275920	878.273156968993	434.897488423842	551.091293243486	758.542020582275	384.290419817632	604.588980887872	758.772938049344	273.291053644080	560.632774094671	568.372439454670	197.456146471684	518.006001737700	733.357066474309	148.245781486058	579.868480961031	621.817369833064	152.363557000658	604.937990751311	795.517609209124	43.057839127045	631.279589572925	586.293664009882	37.832927624265	389.482906411326	658.147988207145	34.586552956413	306.746825375368	742.079775899791	95.792697708823	331.353671247660	869.690352836369	43.332619567063	298.596242647118	771.108855203088	1096.547744671938	112.527141355220	954.631224852932	909.222337728597	117.509070457773	733.666626691033	1090.607076462224	705.567898997499	900.364844601539	893.707693007526	685.858222201548	
